<?xml version="1.0" encoding="utf-8"?>
<!-- Generator: Adobe Illustrator 14.0.0, SVG Export Plug-In . SVG Version: 6.00 Build 43363)  -->
<!DOCTYPE svg PUBLIC "-//W3C//DTD SVG 1.1//EN" "http://www.w3.org/Graphics/SVG/1.1/DTD/svg11.dtd">
<svg version="1.1" id="Layer_1" xmlns="http://www.w3.org/2000/svg" xmlns:xlink="http://www.w3.org/1999/xlink" x="0px" y="0px"
	 width="100px" height="100px" viewBox="0 0 100 100" enable-background="new 0 0 100 100" xml:space="preserve">
<g id="Captions">
</g>
<g id="Your_Icon">
	<path fill="#FFFFFF" d="M66.025,48.998l29.8-29.8c1.567-1.563,1.567-4.107,0-5.675L84.475,2.173c-1.566-1.567-4.106-1.567-5.676,0
		L49,31.972L19.201,2.173c-1.568-1.567-4.107-1.563-5.676,0L2.175,13.527c-1.567,1.567-1.567,4.107,0,5.675l29.8,29.8l-29.8,29.795
		c-1.567,1.568-1.567,4.111,0,5.68l11.351,11.352c1.568,1.566,4.107,1.562,5.676,0L49,66.027l29.799,29.8
		c1.568,1.567,4.108,1.567,5.676,0l11.352-11.354c1.566-1.563,1.566-4.106,0-5.676L66.025,48.998z"/>
</g>
</svg>
