<?xml version="1.0" encoding="utf-8"?>
<!-- Generator: Adobe Illustrator 14.0.0, SVG Export Plug-In . SVG Version: 6.00 Build 43363)  -->
<!DOCTYPE svg PUBLIC "-//W3C//DTD SVG 1.1//EN" "http://www.w3.org/Graphics/SVG/1.1/DTD/svg11.dtd">
<svg version="1.1" id="Layer_1" xmlns="http://www.w3.org/2000/svg" xmlns:xlink="http://www.w3.org/1999/xlink" x="0px" y="0px"
	 width="100px" height="100px" viewBox="0 0 100 100" enable-background="new 0 0 100 100" xml:space="preserve">
<g id="Captions">
</g>
<g id="Your_Icon">
	<path fill="#FFFFFF" d="M98.012,47.155L76.99,11.111c-1.001-0.343-2.091,0.197-2.432,1.211l-4.2,12.277
		c-7.501-3.35-24.958-8.659-44.425,2.639C2.702,40.722,1.059,68.253,1.059,68.253l-0.341,2.275c0,0,8.46-20.27,29.464-24.313
		c13.754-2.646,24.228,2.083,30.564,6.451l-4.072,11.899c-0.346,1.019,0.189,2.122,1.189,2.472l38.9-15.564
		c1.143-0.375,2.102-0.476,2.44-1.49C99.551,48.976,98.666,48.22,98.012,47.155z"/>
</g>
</svg>
