<svg xmlns="http://www.w3.org/2000/svg" width="100" height="100"><g transform="scale(0.078125,0.078125)"><path d="M914 279c4.66699 -4.66699 6.99902 -10.167 6.99902 -16.5s-2.33301 -11.833 -7 -16.5l-155 -155c-4.66699 -4.66699 -10 -7 -16 -7c-5.33301 0 -11 2.33301 -17 7l-221 221l-221 -221c-4.66699 -4.66699 -10 -7 -16 -7c-5.33301 0 -11 2.33301 -17 7l-155 155
c-4 4 -6 9.66699 -6 17c0 6.66699 2 12 6 16l221 221l-220 221c-4.66699 4 -7 9.33301 -7 16c0 7.33301 2.33301 13 7 17l154 155c4.66699 4.66699 10.334 7 17.001 7s12 -2.33301 16 -7l221 -221l221 221c4.66699 4.66699 10.167 7 16.5 7s11.833 -2.33301 16.5 -7
l155 -155c4.66699 -4.66699 7 -10.167 7 -16.5s-2.33301 -11.833 -7 -16.5l-221 -221l221 -221v0z" fill="white"/></g></svg>